<?xml version="1.0" encoding="utf-8"?>
<!-- Generator: Adobe Illustrator 19.2.1, SVG Export Plug-In . SVG Version: 6.00 Build 0)  -->
<svg version="1.1" id="Layer_1" xmlns="http://www.w3.org/2000/svg" xmlns:xlink="http://www.w3.org/1999/xlink" x="0px" y="0px"
	 viewBox="0 0 201 177.7" style="enable-background:new 0 0 201 177.7;" xml:space="preserve">
<style type="text/css">
	.st0{fill:#FFCC00;}
	.st1{fill:#FFBF00;}
	.st2{fill:#FFAA00;}
	.st3{fill:#FFDD00;}
	.st4{fill:#4D4F57;}
</style>
<g id="XMLID_1_">
	<polygon id="XMLID_139_" class="st0" points="41.3,95.6 62.6,95 20.4,142.5 32.6,142.5 7.1,171.2 98.1,117.4 73,119.7 159.3,51.7 
		112.4,62.7 172,2.9 102.3,14.4 	"/>
	<path id="XMLID_138_" class="st0" d="M53.5,83c-1.1,0-1.7-0.8-1.7-1.6L44.7,91c3.3-2.7,6.6-5.4,9.9-8.1
		C54.2,82.9,53.9,82.9,53.5,83z"/>
	<polygon id="XMLID_137_" class="st1" points="112.4,62.7 172,2.9 151.8,5.8 73.5,77.6 108.6,74 49.6,122.4 58.3,122.5 27.2,148.6 
		7.1,171.2 98.1,117.4 73,119.7 159.3,51.7 	"/>
	<g id="XMLID_136_">
		<path id="XMLID_38_" class="st2" d="M0,177l29.4-33.1H17.3l42.1-47.4l-21,0.6l63.1-84l74.7-12.3L117,60.1l48.2-11.3l-87.5,69
			l26.7-2.5L0,177z M23.6,141.1h12.1l-21.5,24.2l77.7-45.9l-23.6,2.2l85-67.1l-45.5,10.7l60-60.1L103,15.8L44.2,94.1l21.6-0.6
			L23.6,141.1z"/>
	</g>
	<path id="XMLID_134_" class="st3" d="M104.2,18.1c0,0-56.1,72.9-54.6,71.8c1.5-1.1,83.3-76,83.3-76L104.2,18.1z"/>
	<polygon id="XMLID_133_" class="st3" points="82.3,79.5 96.6,78.4 51.9,112.9 	"/>
	<g id="XMLID_130_">
		<path id="XMLID_22_" class="st4" d="M35,92.6h-0.4l-1.2,0.2L33,92.5v-1.4l0.2-0.5l-0.1-0.5l0.2-1.1v-0.5l0.2-1.1l0.2-1.2l0.2-1
			l0.1-0.5l0.2-0.9l0.1-0.5l0.1-0.5l0.3-1.8l0.2-0.5l0.1-1l0.1-0.5l0.1-0.5l0.3-1l0.1-0.5l0.1-0.9v-0.4l0.3-0.8v-0.8l0.1-0.5v-0.5
			l0.2-0.5l0.1-1.1l0.2-1.6l0.2-0.6l0.1-0.6l0.1-1.1l0.1-0.6l0.1-0.5l0.1-0.6l0.1-0.5l0.2-1.1l0.1-0.6l0.1-1.2l0.2-1.2l0.2-1v-0.9
			l0.1-1l0.1-0.6l0.2-0.6l0.1-1l0.1-0.5l0.3-1.3l0.1-0.8l-0.1-0.3l0.2-1l0.1-0.5l0.1-1.4l0.1-0.6l0.2-1.1L40,48l0.1-0.9l0.1-0.5V46
			l0.1-0.6l0.1-0.5v-0.5l0.1-0.6l0.3-1.3l0.1-0.5l0.1-0.6l0.2-1.1l0.1-0.6l0.3-1l0.5-0.4l3.3-0.5l0.8-0.2H47l0.4-0.1l4.3-0.6h0.4
			l1-0.2l0.9-0.1h1l0.5-0.1h0.8h1.3l1,0.1l0.4,0.1l0.4,0.3l0.4,0.2l0.8,0.4l0.6,0.5l0.3,0.3l0.4,0.6l0.4,0.5l0.2,0.6l0.4,0.9
			l0.1,0.5l0.3,0.8l0.1,0.8l0.1,0.5l0.2,0.8l-0.1,0.8l0.1,1.1v0.5l0.1,0.8l-0.1,0.8l-0.1,0.9l-0.1,0.5l-0.9,2.1L62.5,53l-0.2,0.6
			l-0.1,0.6L62,54.7v0.5l-0.1,0.5l-0.2,1.1l-0.2,0.6l-0.3,1.1L60.7,60l-0.4,0.9l-0.4,1l-0.6,1.2l-0.4,0.5l-0.4,1l-0.6,0.7l-0.4,0.8
			l-0.3,0.6l-0.8,0.9L56,68.1l-0.9,0.7l-0.6,0.3l-0.8,0.6l-1,0.5l-0.8,0.3L51,70.6l-0.9,0.3l-1.8,0.4l-1.2,0.1l-1.4,0.2l-1,0.1v0.2
			l-0.1,0.5l-0.1,0.5l-0.1,1l-0.1,0.4l-0.1,1l-0.1,0.5L44,76.3l0,0.5l-0.1,0.5v0.5l-0.2,1.1l-0.2,0.7l-0.1,0.9l-0.1,0.6L43.1,82
			L43,82.6l-0.2,0.6v0.7l-0.2,1.2v1.1l-0.3,0.5v0.6l-0.1,0.5l-0.1,0.5L42,88.8l-0.2,0.6l-0.1,0.7l-0.1,0.6l-0.2,0.9L41,91.7l-5,0.8
			L35,92.6z M47.7,61.6l0.7-0.3l1.2-0.3l0.4-0.3l1-1.1l0.7-0.9l0.4-0.9l0.3-0.5l0.3-1.1l0.1-0.7l0.3-0.7l0.3-1.3l0.3-2.2l0.1-2V48
			l-0.3-0.9l-0.4-0.6L52.4,46l-0.6-0.1l-1.7,0.2l-1.5,0.3l-0.4,0.2l-0.3,1L47.8,48l-0.1,0.8l-0.1,1.3l-0.1,0.6l-0.2,0.9l-0.2,1.5
			L47,54l-0.2,1.2l-0.1,0.9v0.6l-0.1,0.7l-0.3,1.9V60l-0.2,1.1l0,0.8L47.7,61.6z"/>
		<path id="XMLID_25_" class="st4" d="M66.8,88.1l-1.7,0.2h-0.4l-3.4,0.5l-0.6-0.1L60.5,88l0.2-0.7l0.1-0.7l0.1-1.2l0.1-1.2l0.3-1.2
			l0.1-1.2l0.2-0.6v-0.7l0.1-0.5v-0.5l0.1-0.6l0.1-0.5l0.1-1.1l0.1-1l0.3-0.6l0.1-1.2V74l0.1-0.6l0.1-1V72l0.3-1.1l-0.1-0.4l0.2-1
			l0.2-0.6l0.1-0.5l0.2-1.2l0.1-0.6L64,65v-1.1l0.3-1.1l0.1-1.2l0.2-0.6l0.1-0.6l0.1-0.5v-0.5l0.3-0.5l0.4-2.3l0.2-0.6l0.1-0.6
			l-0.3-0.5l0.2-1.1l0.3-1.2l0.1-2.1l0.2-0.6l0.1-1.6l0.3-0.5l0.1-0.6l0.1-0.5l-0.1-0.4l0.1-0.5l0.3-1l0.1-1.1l0.2-0.5v-0.5l0.2-0.6
			l-0.1-0.4l0.1-0.6l0.1-1l0.1-0.5l0.1-0.5l0.1-1l0.1-0.5l-0.1-0.5l0.2-0.9l0.2-0.5l0.1-0.5l0.5-0.5l1.1-0.2l0.4-0.1H71l0.8-0.2
			l0.4-0.1h0.5l0.6-0.1l1.4-0.3l4.8-0.8l1.5-0.1h0.5l1.9-0.3l1.4-0.2l0.6-0.2H86h0.6l0.3,0.5l-0.2,0.9V34l-0.4,1.9v0.5l-0.2,0.5
			L86,37.5v0.4l-0.2,1.2v0.6l-0.3,1.1l-0.1,0.5l-0.2,1l-0.6,0.2L82,42.8L81.2,43L77,43.6l-1.5,0.3l-0.2,0.9l-0.1,0.5v1.1l-0.1,0.5
			v0.6L74.9,49l-0.1,1.1l-0.2,1.1l-0.1,0.6l0.1,0.6l-0.2,0.8l-0.1,1.4l1.1-0.2l2.2-0.2l1.2-0.3l1.7-0.2l0.5,0.1l0.4,0.6l-0.1,0.9
			v0.6l-0.1,0.9L81,57.9l-0.1,0.5l-0.2,1.2v0.3l-0.2,0.6l-0.1,1.1L80,62.9l-0.1,1l-0.1,0.2l-0.6,0.1l-1,0.2l-0.6,0.1L76,64.8
			l-1.1,0.1L74.2,65l-0.8,0.2l-0.6,0.1l-0.3,0.9l-0.2,1L72,69.4l-0.2,0.8l-0.1,0.7l-0.1,0.8l-0.1,0.6l-0.2,1.4l-0.3,2v0.6l0.3,0.3
			h0.9l3.8-0.5l0.9-0.1l1.4-0.1l1.8-0.3l0.4,0.2l-0.1,0.6l-0.1,0.3l-0.1,0.9l0.1,0.3L80,79.7v1l-0.1,0.5l-0.1,0.5l-0.1,0.5l-0.2,1.2
			l-0.1,1.3l-0.1,0.7l-0.2,0.9L73,87.2l-1,0.2h-0.8l-0.4,0.1l-1.3,0.2l-1,0.2L68,88L66.8,88.1z"/>
		<path id="XMLID_27_" class="st4" d="M89.1,85l-1.7,0.2H87l-3.4,0.5L83,85.6l-0.2-0.7l0.2-0.7l0.1-0.7l0.1-1.2l0.1-1.2l0.3-1.2
			l0.1-1.2l0.2-0.6v-0.7l0.1-0.6v-0.5l0.1-0.6l0.1-0.5l0.1-1.1l0.1-1l0.3-0.6l0.1-1.2v-0.5l0.1-0.6l0.1-1v-0.4l0.3-0.9l-0.1-0.4
			l0.2-1l0.2-0.6l0.1-0.5l0.2-1.2l0.1-0.6l0.3-1.6v-1.1l0.3-1.1l0.1-1.2l0.2-0.6l0.1-0.6l0.1-0.5v-0.5l0.3-0.5l0.4-2.3L88,53
			l0.1-0.6L88,52l0.2-1.1l0.3-1.2l0.1-2.1l0.2-0.6l0.1-1.6l0.3-0.5l0.1-0.6l0.1-0.5L89,43l0.1-0.5l0.3-1l0.1-1.1l0.2-0.5v-0.5
			l0.2-0.6l-0.1-0.4l0.1-0.6l0.1-1l0.1-0.5l0.1-0.5l0.1-1l0.1-0.5l-0.2-0.4l0.2-0.9l0.2-0.5l0.1-0.5l0.5-0.5l1.1-0.2l0.4-0.1h0.4
			l0.8-0.2l0.4-0.1h0.5l0.6-0.1l1.4-0.3l4.8-0.8l1.5-0.1h0.5l1.9-0.3l1.4-0.2l0.6-0.2h0.6h0.6l0.3,0.5l-0.2,0.9v0.5l-0.1,1.9v0.5
			l-0.2,0.6l-0.1,0.5l-0.1,0.5l-0.2,1.2v0.6l-0.3,1.1l-0.1,0.5l-0.2,1l-0.6,0.2l-2.7,0.4l-0.8,0.2l-4.2,0.6l-1.5,0.3l-0.2,0.9
			l-0.1,0.5v1.1l-0.2,0.5v0.6L97,46l-0.1,1.1l-0.2,1.1l-0.1,0.6l0.1,0.6l-0.2,0.8l-0.1,1.4l1.2-0.2l2.2-0.2l1.2-0.3l1.7-0.2l0.5,0.1
			l0.4,0.6l-0.1,0.9v0.6l-0.1,0.9l-0.2,1.1l-0.1,0.6l-0.2,1.2v0.5l-0.2,0.6l-0.1,1.1l-0.2,1.2l-0.1,1.1l-0.1,0.2l-0.6,0.1l-1,0.2
			l-0.6,0.1l-1.6,0.3l-1.1,0.1l-0.7,0.1l-0.8,0.2l-0.6,0.1l-0.3,0.9l-0.2,1l-0.3,2.2l-0.1,0.2l-0.1,0.7l-0.1,0.8L94,69l-0.2,1.4
			l-0.3,2V73l0.3,0.3h0.9l3.8-0.5l0.9-0.1l1.4-0.1l1.8-0.3l0.4,0.2l-0.1,0.6l-0.1,0.3l-0.1,0.9l-0.1,0.6l-0.3,1.7v1l-0.1,0.6
			l-0.1,0.5l-0.1,0.5l-0.2,1.2l-0.1,1.3l-0.1,0.7l-0.2,0.9l-6.1,0.9l-1,0.2h-0.8l-0.4,0.1l-1.3,0.2l-1,0.2l-0.5,0L89.1,85z"/>
		<path id="XMLID_29_" class="st4" d="M105.6,82.4l-0.3-0.4l-0.1-0.5l-0.1-0.4l0.1-0.5l0.3-0.8l0.2-0.8l0.1-0.5l0.1-0.5l0.3-1v-1.1
			l0.3-1v-0.5l0.1-0.5l0.1-1l0.1-0.7v-0.9l0.3-1.1l0.1-0.5l0.2-0.6l-0.1-0.4l0.2-1l0.2-0.6v-0.5l0.1-0.5l0.1-1.1l0.1-0.5v-1.1
			l0.1-0.5l0.1-0.5v-0.5l0.3-1.1v-0.5l0.3-1.1l0.3-2.3l0.3-1.1v-0.4l0.4-2.2l0.1-1l0.1-0.9l0.3-1l0.1-0.6v-1.1l0.3-1v-0.5l0.1-0.9
			l0.2-1.6l-0.1-0.6l0.2-0.6l0.3-1.1l0.1-0.6l-0.1-0.5l0.1-0.6l0.1-1l0.1-0.9l0.3-0.5v-0.5l0.1-0.5v-0.5l0.3-0.6l0.1-1.2l0.2-1.2
			l0.3-0.9l0.1-0.9v-0.5l0.1-0.5l0.3-1.6l0.2-0.5l1-0.3l1.5-0.2l2.4-0.3l2.5-0.3l1.3-0.1l0.2,0.9l-0.1,0.5v0.5l-0.4,1.9v0.5
			l-0.1,0.5l-0.2,1.6l-0.1,0.9l-0.1,0.8l-0.5,2.7l-0.2,1.1v0.6l-0.3,1.1l-0.1,1.1l-0.3,0.6l0.1,0.6l-0.1,0.6l-0.1,0.5l-0.1,0.5
			l-0.2,1.1l-0.2,1l-0.3,0.6l0.1,0.6l-0.1,0.6v0.6l-0.2,1.6l-0.1,0.6v1.1l-0.1,0.5l-0.2,1.2l-0.1,0.5l-0.3,1.3l-0.1,1.1l-0.2,1.1
			l-0.1,0.6l-0.1,0.5l-0.3,1.3v0.5l-0.1,0.6l-0.1,1.1l-0.3,1l-0.1,1l-0.1,0.7v0.8l-0.1,0.5l-0.1,0.5l-0.1,0.6l-0.1,0.8l-0.1,0.8v0.8
			l0.3,0.3l0.6-0.1h0.6l3.3-0.5l1.4-0.3l1.7-0.2l0.4,0.2l-0.1,1.2l-0.1,0.5l0.1,0.5l-0.2,0.6l-0.3,2.7l-0.2,0.6v0.5l-0.1,0.5
			l-0.1,1.2l-0.3,1.3l-0.5,0.6l-1.2,0.2l-0.8,0.3l-1.4,0.4l-1.2,0.1l-1,0.2h-0.9l-1.3,0.3l-5.2,0.7l-0.6,0.2l-1.8,0.3H107l-0.8,0.2
			L105.6,82.4z"/>
		<path id="XMLID_31_" class="st4" d="M47.6,149.7h-0.4l-1.1,0.2l-0.4-0.3v-1.4l0.2-0.5l-0.1-0.5l0.2-1.1v-0.5l0.2-1.1l0.2-1.2
			l0.2-1l0.1-0.5l0.2-0.9l0.1-0.5l0.1-0.5l0.3-1.8l0.2-0.5l0.1-1l0.1-0.5l0.1-0.5l0.3-1l0.1-0.5l0.1-0.9v-0.4l0.3-0.8v-0.8l0.1-0.5
			v-0.5l0.2-0.5l0.1-1.1l0.2-1.6l0.2-0.6l0.1-0.6l0.1-1.1l0.1-0.6l0.1-0.5L50,123l0.1-0.5l0.2-1.1l0.1-0.6l0.1-1.2l0.2-1.2l0.2-1
			v-0.9l0.1-1l0.1-0.6l0.2-0.6l0.1-1l0.1-0.5l0.3-1.3l0.1-0.8l-0.1-0.3l0.2-1l0.1-0.5l0.1-1.4l0.1-0.6l0.2-1.1l0.2-0.7l0.1-0.9
			l0.1-0.6V103l0.1-0.6l0.1-0.5v-0.5l0.1-0.6l0.3-1.3l0.1-0.5l0.1-0.6l0.2-1.1l0.1-0.6l0.3-1l0.5-0.4l3.3-0.5l0.8-0.2h0.8l0.4-0.1
			l4.3-0.6h0.4l1-0.2l0.9-0.1h1l0.5-0.1H69h1.3l1,0.1l0.4,0.1l0.4,0.3l0.4,0.2l0.8,0.4l0.6,0.5l0.3,0.3l0.4,0.6l0.4,0.5l0.2,0.6
			l0.4,0.9l0.1,0.5l0.3,0.8l0.1,0.8l0.1,0.5l0.2,0.8l-0.1,0.8l0.1,1.1v0.5l0.1,0.8l-0.1,0.8l-0.1,0.9l-0.1,0.5l-0.1,1.7l-0.1,1.1
			l-0.2,0.6l-0.1,0.6l-0.2,0.6l-0.1,0.5l-0.1,0.5l-0.2,1.1l-0.2,0.6l-0.3,1.1l-0.5,1.5l-0.3,0.9l-0.4,1l-0.6,1.2l-0.4,0.5l-0.4,1
			l-0.6,0.7l-0.4,0.8l-0.3,0.6l-0.8,0.9l-0.3,0.5l-0.9,0.7l-0.6,0.3l-0.8,0.6l-1,0.5l-0.8,0.3l-0.8,0.2l-0.9,0.3l-1.8,0.4l-1.2,0.1
			l-1.4,0.2l-1,0.1v0.2l-0.1,0.5l-0.2,0.6l-0.1,1l-0.1,0.4l-0.1,1l-0.1,0.5l-0.1,0.5l-0.1,0.5l-0.1,0.5v0.5l-0.2,1.1l-0.2,0.7
			l-0.1,0.9l-0.1,0.6l-0.2,0.9l-0.1,0.5l-0.2,0.6v0.8l-0.2,1.2v1.1l-0.3,0.5v0.6l-0.1,0.5l-0.1,0.5l-0.1,0.5l-0.2,0.6l-0.1,0.7
			l-0.1,0.6l-0.2,0.9l-0.4,0.1l-5.1,0.7L47.6,149.7z M60.3,118.8l0.7-0.2l1.2-0.3l0.4-0.3l1-1.1l0.7-0.9l0.4-0.9l0.3-0.5l0.3-1.1
			l0.1-0.7l0.3-0.7l0.3-1.3l0.3-2.2l0.1-2v-1.3l-0.3-0.9l-0.4-0.6l-0.7-0.5l-0.6-0.1l-1.7,0.2l-1.5,0.3l-0.4,0.2l-0.3,1l-0.1,0.4
			l-0.1,0.8l-0.1,1.3l-0.1,0.5l-0.2,0.9l-0.2,1.5l-0.1,0.8l-0.2,1.2l-0.1,0.9v0.6l-0.1,0.7l-0.3,1.9v0.7l-0.2,1.1l-0.1,0.7
			L60.3,118.8z"/>
		<path id="XMLID_34_" class="st4" d="M79.5,145.3l-1.9,0.3h-0.9l-0.5,0.1l-0.4,0.1h-0.7h-0.4l-0.5,0.1l-0.5-0.1l-0.5-0.5l-0.1-1.1
			l0.3-1.1l0.1-1.1l0.1-0.6l0.1-1.1l0.1-0.6l0.2-1.2l0.1-0.5l0.1-0.6l0.1-0.5l0.3-1l-0.1-0.4l0.2-1.4l0.2-0.9l0.1-0.7l0.2-0.7
			l0.1-0.7l0.1-0.9v-0.5l0.1-0.6l0.1-0.5l0.1-0.6l-0.1-0.5l0.4-1.7l0.1-1.2v-0.5l0.1-0.5l0.1-0.5l0.1-0.5l0.1-1.1v-1.1l0.3-1.1v-0.5
			l0.1-1.1l0.3-0.6v-1l0.1-0.9l0.2-1l0.3-1.1l0.2-1.6v-1.1l0.2-0.6l0.1-1.1l0.1-0.5l-0.1-0.5l0.3-0.9l0.1-0.5l0.2-1l0.1-0.5l0.3-1
			l-0.1-0.5l0.1-0.6l0.1-1l0.1-0.4l0.1-1.1l0.2-1l0.1-0.5l0.1-0.5l0.1-0.9l0.1-0.9l0.3-0.9l0.1-1.2l0.1-0.5l0.1-0.5l0.4-0.8l0.4-0.3
			l0.4-0.3l0.4-0.1l1-0.2H84l0.9-0.1l0.4-0.1l3.4-0.5l0.4-0.1l0.7,0.1l0.3,0.7L90,91.9v1l-0.1,0.2l-0.1,0.8l0.1,0.4l-0.2,0.3v0.7
			l-0.2,0.6L89.4,97l-0.3,0.7v0.6L89,98.8v0.5l-0.1,0.5l-0.3,2l-0.1,0.9l-0.1,0.5l-0.1,0.9l-0.1,0.5l-0.1,0.9L88,106l-0.1,1
			l-0.2,0.9l-0.2,1l-0.1,0.4l-0.2,1.1l-0.2,0.7v0.7l-0.1,0.5l-0.1,0.6v0.5l-0.1,1l-0.2,0.8l-0.3,2.3l-0.3,1.1l-0.2,0.6v0.6l-0.2,1
			l-0.1,1l-0.1,0.9l-0.3,1.1v0.6l-0.3,1.1v0.6l-0.1,1.1l-0.1,0.4v1.1l-0.3,0.8l0.1,0.8l-0.2,1.2l-0.1,0.6l-0.3,1v0.6l-0.2,1.1
			l-0.1,1.1l-0.1,1v0.5l-0.2,0.9l-0.3,1.9l-0.2,1l-0.1,1.1l-0.2,1l-0.1,0.6l-0.2,0.7l-0.7,0.3l-1.7,0.2L79.5,145.3z"/>
		<path id="XMLID_36_" class="st4" d="M99.7,143.3l-0.4,0.1h-0.4h-0.7h-0.5h-0.4h-0.6l-0.4-0.1h-0.4l-0.8-0.3l-0.8-0.2l-0.4-0.3
			l-0.6-0.4l-0.3-0.3l-0.4-0.2l-0.8-0.6l-0.3-0.3l-0.3-0.3l-0.4-1l-0.6-0.9l-0.2-1l-0.1-0.4l-0.1-1l-0.1-0.5v-1.4l-0.1-0.6v-0.7
			l0.1-0.5v-2l0.1-1.6l0.1-0.6l0.1-1.1l0.1-1.1v-0.5l0.1-0.5l0.1-1.6l0.3-1.1l-0.1-0.7l0.1-0.6l0.2-0.9l-0.1-0.4l0.2-1.4l0.3-0.5
			v-1.1l0.1-0.2v-0.3l0.2-0.9l0.1-0.9l0.2-0.8l0.1-0.9v-0.5l0.2-0.5v-1.1l0.3-1.6l0.1-0.6l0.1-0.9l0.1-0.8l0.2-0.5l0.1-0.5l0.1-0.6
			l0.1-0.5l0.1-0.5l0.2-0.6l0.2-1l0.4-1.6l0.4-1.6l0.3-1.1l0.4-1.3l0.3-1l0.4-1.1l0.3-0.9l0.4-0.5l0.4-0.8l0.5-0.8l0.9-1.2l0.4-0.4
			l0.8-0.6l0.4-0.3l1.3-0.9l1.1-0.4l0.8-0.3l0.4-0.1l1-0.1l1.2-0.2l1-0.1h1.6l0.6,0.1l0.6-0.1h0.9h0.4l0.4,0.1h0.4l0.3,0.2l0.7,0.1
			l0.9,0.3l0.8,0.6l0.7,0.7l0.1,0.4l0.3,0.6l0.2,0.4l0.1,0.5l0.3,0.7l0.1,0.8l0.1,0.9l0.1,1l0.1,0.7l0.1,1.1V98l-0.1,0.8l-0.1,0.6
			l-0.1,1.2l-0.1,1.2l-0.4,3l-0.1,0.6l-0.3,2l-0.3,0.3l-0.8,0.2l-0.9,0.2l-4,0.5h-1.9l-0.4-0.8v-0.9l0.1-0.5l0.3-1.4l0.1-1.1
			l0.4-1.7l0.1-1l0.1-1.1v-1.2l-0.4-1.3l-0.7-0.4l-0.9-0.2l-0.7,0.1l-0.8,0.3l-0.7,0.4l-0.6,0.9l-0.2,0.5l-0.2,0.6l-0.3,1.3l-0.3,1
			l-0.4,1.3v0.5l-0.3,0.9l-0.2,1.2l-0.2,0.9l-0.2,0.7l-0.1,0.5l-0.1,0.5l-0.1,0.5l-0.1,1.1l-0.3,1.2l-0.5,3.1l-0.1,0.6l-0.3,1.3
			l-0.1,0.5l-0.1,1l-0.1,0.6l-0.2,1.2v1.6l-0.2,0.6l-0.1,0.5v0.6l-0.1,0.5l-0.1,0.6l0.1,0.5l-0.2,1.6v0.6l-0.2,1.1l-0.1,1.1v0.8
			l0.1,0.4v0.5l0.3,1.1l0.5,0.5l1,0.2l1-0.3l1-0.1l0.9-0.8l0.3-0.4l0.5-1.4l0.3-1.1l0.3-1l0.1-0.5l0.1-0.4l0.2-0.9l0.2-1.2l0.1-0.7
			l0.1-0.5l0.3-1l0.1-0.8l0.4-0.7l0.5-0.1l1.7-0.2l1.3-0.2l3.1-0.2h0.8l0.4,0.5l0.3,0.5v0.8l-0.1,0.5v0.5l-0.1,1l-0.1,0.8l-0.1,0.4
			l-0.1,0.5l-0.1,0.3l-0.2,1.6l-0.1,0.5l-0.4,2l-0.2,0.9l-0.1,0.5l-0.1,0.6l-0.2,0.5l-0.4,1.3l-0.3,1l-0.2,0.6l-0.3,0.5l-0.3,0.5
			l-0.2,0.5l-0.1,0.5l-1,1.5l-1,1.1l-1,0.9l-0.4,0.3l-1.7,0.7l-0.8,0.3l-0.8,0.3l-0.8,0.3l-1,0.1L101,143l-0.6,0.2L99.7,143.3z"/>
	</g>
	<g id="XMLID_141_">
		<path id="XMLID_2_" class="st4" d="M131,96.5l-0.3,2.6c-0.4,3.1-2,5.1-4.6,5.5c-2.6,0.3-3.7-1.3-3.3-4.4l1.3-10.2
			c0.4-3.1,2-5.1,4.6-5.5c2.6-0.3,3.7,1.3,3.3,4.4l-0.2,1.9l-2.5,0.3l0.3-2.1c0.2-1.4-0.3-1.9-1.1-1.8s-1.4,0.7-1.6,2.1l-1.4,10.6
			c-0.2,1.4,0.3,1.8,1.1,1.7c0.8-0.1,1.4-0.7,1.6-2.1l0.4-2.8L131,96.5z"/>
		<path id="XMLID_4_" class="st4" d="M137.2,102.9c-0.1-0.5-0.1-0.8,0.1-2.4l0.4-3.1c0.2-1.8-0.2-2.4-1.4-2.3l-0.9,0.1l-1,8
			l-2.6,0.3l2.5-19.7l4-0.5c2.7-0.4,3.7,1,3.3,4l-0.2,1.5c-0.3,2-1,3.4-2.2,4.2c1.2,0.5,1.5,1.9,1.2,4l-0.4,3c-0.1,1-0.2,1.7,0,2.3
			L137.2,102.9z M136.4,86.4l-0.8,6l1-0.1c1-0.1,1.7-0.7,1.9-2.3l0.2-1.9c0.2-1.4-0.1-2-1.1-1.8L136.4,86.4z"/>
		<path id="XMLID_7_" class="st4" d="M145.4,90.6l3.6-0.5l-0.4,2.8l-3.6,0.5l-0.7,5.8l4.6-0.6l-0.4,2.8l-7.2,1l2.5-19.7l7.2-1
			l-0.4,2.8l-4.6,0.6L145.4,90.6z"/>
		<path id="XMLID_9_" class="st4" d="M158.7,100l-2.7,0.4v-3.5l-3.2,0.4l-0.9,3.6l-2.4,0.3l5.2-20l3.9-0.5L158.7,100z M153.4,94.6
			l2.5-0.3v-9.8L153.4,94.6z"/>
		<path id="XMLID_12_" class="st4" d="M160.7,80.4l8.2-1.1l-0.4,2.8l-2.8,0.4l-2.2,16.8l-2.6,0.3l2.2-16.8l-2.8,0.4L160.7,80.4z"/>
		<path id="XMLID_14_" class="st4" d="M170,79.2l2.6-0.3l-2.5,19.7l-2.6,0.3L170,79.2z"/>
		<path id="XMLID_16_" class="st4" d="M176.5,94.1l4.1-16.3l2.4-0.3l-5.1,20L174,98l-0.1-19.3l2.7-0.4L176.5,94.1z"/>
		<path id="XMLID_18_" class="st4" d="M185.8,85.3l3.6-0.5l-0.4,2.8l-3.6,0.5l-0.7,5.8l4.6-0.6l-0.4,2.8l-7.2,1l2.5-19.7l7.2-1
			l-0.4,2.8l-4.6,0.6L185.8,85.3z"/>
		<path id="XMLID_20_" class="st4" d="M196.7,75.5c2.6-0.3,3.7,1.3,3.3,4.4l-0.1,0.6l-2.5,0.3l0.1-0.8c0.2-1.4-0.2-1.9-1.1-1.8
			c-0.8,0.1-1.4,0.7-1.6,2.1c-0.5,4,4.5,4.1,3.8,9.7c-0.4,3.1-2,5.1-4.6,5.5c-2.6,0.3-3.7-1.3-3.3-4.4l0.2-1.2l2.5-0.3l-0.2,1.4
			c-0.2,1.4,0.3,1.8,1.1,1.7c0.8-0.1,1.4-0.7,1.6-2.1c0.5-4-4.5-4.1-3.8-9.7C192.5,77.8,194.1,75.8,196.7,75.5z"/>
	</g>
</g>
</svg>
